<svg xmlns="http://www.w3.org/2000/svg" viewBox="0 0 64 64">
  <defs>
    <filter id="cyanGlow">
      <feDropShadow dx="0" dy="0" stdDeviation="2" flood-color="#00f0ff" flood-opacity="0.8"/>
    </filter>
    <filter id="magentaGlow">
      <feDropShadow dx="0" dy="0" stdDeviation="2" flood-color="#ff00ff" flood-opacity="0.8"/>
    </filter>
  </defs>

  <!-- Background -->
  <rect width="64" height="64" fill="#0e1621"/>
  <rect x="2" y="2" width="60" height="60" fill="none" stroke="#ff00ff" stroke-width="1" opacity="0.3"/>

  <!-- Hexagon frame -->
  <polygon points="32,6 54,18 54,46 32,58 10,46 10,18"
           fill="#15202e" stroke="#ff00ff" stroke-width="2" filter="url(#magentaGlow)"/>

  <!-- Inner hexagon -->
  <polygon points="32,12 48,22 48,42 32,52 16,42 16,22"
           fill="none" stroke="#00f0ff" stroke-width="1" opacity="0.5"/>

  <!-- Center hub -->
  <circle cx="32" cy="32" r="10" fill="#0e1621" stroke="#00f0ff" stroke-width="2" filter="url(#cyanGlow)"/>
  <circle cx="32" cy="32" r="5" fill="#00f0ff" opacity="0.8">
    <animate attributeName="opacity" values="0.8;0.4;0.8" dur="1.5s" repeatCount="indefinite"/>
  </circle>

  <!-- Connection nodes -->
  <circle cx="32" cy="14" r="3" fill="#ff00ff"/>
  <circle cx="48" cy="24" r="3" fill="#00f0ff"/>
  <circle cx="48" cy="40" r="3" fill="#ff00ff"/>
  <circle cx="32" cy="50" r="3" fill="#00f0ff"/>
  <circle cx="16" cy="40" r="3" fill="#ff00ff"/>
  <circle cx="16" cy="24" r="3" fill="#00f0ff"/>

  <!-- Connection lines -->
  <line x1="32" y1="14" x2="32" y2="22" stroke="#ff00ff" stroke-width="1" opacity="0.7"/>
  <line x1="48" y1="24" x2="42" y2="28" stroke="#00f0ff" stroke-width="1" opacity="0.7"/>
  <line x1="48" y1="40" x2="42" y2="36" stroke="#ff00ff" stroke-width="1" opacity="0.7"/>
  <line x1="32" y1="50" x2="32" y2="42" stroke="#00f0ff" stroke-width="1" opacity="0.7"/>
  <line x1="16" y1="40" x2="22" y2="36" stroke="#ff00ff" stroke-width="1" opacity="0.7"/>
  <line x1="16" y1="24" x2="22" y2="28" stroke="#00f0ff" stroke-width="1" opacity="0.7"/>
</svg>
